<svg xmlns="http://www.w3.org/2000/svg" width="100" height="100" viewBox="0 0 100 100" fill="none"><circle cx="2.5" cy="2.5" r="2.5" fill="#E2E2E2"></circle><circle cx="11.5" cy="2.5" r="2.5" fill="#E2E2E2"></circle><circle cx="20.5" cy="2.5" r="2.5" fill="#E2E2E2"></circle><circle cx="29.5" cy="2.5" r="2.5" fill="#E2E2E2"></circle><circle cx="38.5" cy="2.5" r="2.5" fill="#E2E2E2"></circle><circle cx="47.5" cy="2.5" r="2.5" fill="#E2E2E2"></circle><circle cx="56.5" cy="2.5" r="2.5" fill="#E2E2E2"></circle><circle cx="65.5" cy="2.5" r="2.5" fill="#E2E2E2"></circle><circle cx="74.5" cy="2.5" r="2.5" fill="#E2E2E2"></circle><circle cx="83.5" cy="2.5" r="2.5" fill="#E2E2E2"></circle><circle cx="92.5" cy="2.5" r="2.5" fill="#E2E2E2"></circle><circle cx="2.5" cy="11.5" r="2.5" fill="#E2E2E2"></circle><circle cx="11.5" cy="11.5" r="2.5" fill="#E2E2E2"></circle><circle cx="20.5" cy="11.5" r="2.5" fill="#E2E2E2"></circle><circle cx="29.5" cy="11.5" r="2.5" fill="#E2E2E2"></circle><circle cx="38.5" cy="11.5" r="2.5" fill="#E2E2E2"></circle><circle cx="47.5" cy="11.5" r="2.5" fill="#E2E2E2"></circle><circle cx="56.5" cy="11.5" r="2.5" fill="#E2E2E2"></circle><circle cx="65.5" cy="11.5" r="2.5" fill="#E2E2E2"></circle><circle cx="74.5" cy="11.5" r="2.5" fill="#E2E2E2"></circle><circle cx="83.5" cy="11.5" r="2.5" fill="#E2E2E2"></circle><circle cx="92.5" cy="11.5" r="2.5" fill="#E2E2E2"></circle><circle cx="2.5" cy="20.5" r="2.5" fill="#E2E2E2"></circle><circle cx="11.5" cy="20.5" r="2.5" fill="#E2E2E2"></circle><circle cx="20.5" cy="20.5" r="2.5" fill="#E2E2E2"></circle><circle cx="29.5" cy="20.5" r="2.5" fill="#E2E2E2"></circle><circle cx="38.5" cy="20.5" r="2.5" fill="#E2E2E2"></circle><circle cx="47.5" cy="20.5" r="2.5" fill="#E2E2E2"></circle><circle cx="56.5" cy="20.5" r="2.5" fill="#E2E2E2"></circle><circle cx="65.5" cy="20.5" r="2.5" fill="#E2E2E2"></circle><circle cx="74.5" cy="20.5" r="2.5" fill="#E2E2E2"></circle><circle cx="83.5" cy="20.5" r="2.5" fill="#E2E2E2"></circle><circle cx="92.5" cy="20.5" r="2.5" fill="#E2E2E2"></circle><circle cx="2.5" cy="29.5" r="2.5" fill="#E2E2E2"></circle><circle cx="11.5" cy="29.5" r="2.5" fill="#E2E2E2"></circle><circle cx="20.5" cy="29.5" r="2.5" fill="#E2E2E2"></circle><circle cx="29.5" cy="29.5" r="2.5" fill="#E2E2E2"></circle><circle cx="38.5" cy="29.5" r="2.5" fill="#E2E2E2"></circle><circle cx="47.5" cy="29.5" r="2.5" fill="#E2E2E2"></circle><circle cx="56.5" cy="29.5" r="2.5" fill="#E2E2E2"></circle><circle cx="65.5" cy="29.5" r="2.5" fill="#E2E2E2"></circle><circle cx="74.5" cy="29.5" r="2.5" fill="#E2E2E2"></circle><circle cx="83.5" cy="29.5" r="2.5" fill="#E2E2E2"></circle><circle cx="92.5" cy="29.5" r="2.5" fill="#E2E2E2"></circle><circle cx="2.5" cy="38.5" r="2.5" fill="#E2E2E2"></circle><circle cx="11.5" cy="38.5" r="2.5" fill="#E2E2E2"></circle><circle cx="20.5" cy="38.5" r="2.5" fill="#E2E2E2"></circle><circle cx="29.5" cy="38.5" r="2.5" fill="#E2E2E2"></circle><circle cx="38.5" cy="38.5" r="2.5" fill="#E2E2E2"></circle><circle cx="47.5" cy="38.5" r="2.5" fill="#E2E2E2"></circle><circle cx="56.5" cy="38.5" r="2.5" fill="#E2E2E2"></circle><circle cx="65.5" cy="38.5" r="2.5" fill="#E2E2E2"></circle><circle cx="74.5" cy="38.5" r="2.5" fill="#E2E2E2"></circle><circle cx="83.5" cy="38.5" r="2.5" fill="#E2E2E2"></circle><circle cx="92.5" cy="38.5" r="2.5" fill="#E2E2E2"></circle><circle cx="2.5" cy="47.5" r="2.5" fill="#E2E2E2"></circle><circle cx="11.5" cy="47.5" r="2.5" fill="#E2E2E2"></circle><circle cx="20.5" cy="47.5" r="2.5" fill="#E2E2E2"></circle><circle cx="29.5" cy="47.5" r="2.5" fill="#E2E2E2"></circle><circle cx="38.5" cy="47.5" r="2.5" fill="#E2E2E2"></circle><circle cx="47.5" cy="47.5" r="2.5" fill="#E2E2E2"></circle><circle cx="56.5" cy="47.5" r="2.5" fill="#E2E2E2"></circle><circle cx="65.5" cy="47.5" r="2.5" fill="#E2E2E2"></circle><circle cx="74.5" cy="47.5" r="2.5" fill="#E2E2E2"></circle><circle cx="83.5" cy="47.5" r="2.5" fill="#E2E2E2"></circle><circle cx="92.5" cy="47.5" r="2.5" fill="#E2E2E2"></circle><circle cx="2.5" cy="56.5" r="2.5" fill="#E2E2E2"></circle><circle cx="11.5" cy="56.5" r="2.5" fill="#E2E2E2"></circle><circle cx="20.5" cy="56.5" r="2.5" fill="#E2E2E2"></circle><circle cx="29.5" cy="56.5" r="2.5" fill="#E2E2E2"></circle><circle cx="38.5" cy="56.5" r="2.5" fill="#E2E2E2"></circle><circle cx="47.5" cy="56.5" r="2.5" fill="#E2E2E2"></circle><circle cx="56.5" cy="56.5" r="2.5" fill="#E2E2E2"></circle><circle cx="65.5" cy="56.5" r="2.5" fill="#E2E2E2"></circle><circle cx="74.5" cy="56.5" r="2.5" fill="#E2E2E2"></circle><circle cx="83.5" cy="56.5" r="2.5" fill="#E2E2E2"></circle><circle cx="92.5" cy="56.5" r="2.5" fill="#E2E2E2"></circle><circle cx="2.5" cy="65.5" r="2.5" fill="#E2E2E2"></circle><circle cx="11.5" cy="65.5" r="2.5" fill="#E2E2E2"></circle><circle cx="20.5" cy="65.5" r="2.5" fill="#E2E2E2"></circle><circle cx="29.5" cy="65.5" r="2.5" fill="#E2E2E2"></circle><circle cx="38.5" cy="65.5" r="2.5" fill="#E2E2E2"></circle><circle cx="47.5" cy="65.5" r="2.5" fill="#E2E2E2"></circle><circle cx="56.5" cy="65.5" r="2.5" fill="#E2E2E2"></circle><circle cx="65.5" cy="65.5" r="2.5" fill="#E2E2E2"></circle><circle cx="74.5" cy="65.5" r="2.5" fill="#E2E2E2"></circle><circle cx="83.5" cy="65.5" r="2.5" fill="#E2E2E2"></circle><circle cx="92.5" cy="65.5" r="2.5" fill="#E2E2E2"></circle><circle cx="2.5" cy="74.5" r="2.5" fill="#E2E2E2"></circle><circle cx="11.5" cy="74.5" r="2.5" fill="#E2E2E2"></circle><circle cx="20.5" cy="74.5" r="2.5" fill="#E2E2E2"></circle><circle cx="29.5" cy="74.5" r="2.5" fill="#E2E2E2"></circle><circle cx="38.5" cy="74.5" r="2.5" fill="#E2E2E2"></circle><circle cx="47.5" cy="74.5" r="2.5" fill="#E2E2E2"></circle><circle cx="56.5" cy="74.5" r="2.5" fill="#E2E2E2"></circle><circle cx="65.5" cy="74.5" r="2.5" fill="#E2E2E2"></circle><circle cx="74.5" cy="74.5" r="2.5" fill="#E2E2E2"></circle><circle cx="83.5" cy="74.5" r="2.5" fill="#E2E2E2"></circle><circle cx="92.5" cy="74.5" r="2.5" fill="#E2E2E2"></circle><circle cx="2.5" cy="83.5" r="2.5" fill="#E2E2E2"></circle><circle cx="11.5" cy="83.5" r="2.5" fill="#E2E2E2"></circle><circle cx="20.5" cy="83.5" r="2.5" fill="#E2E2E2"></circle><circle cx="29.5" cy="83.5" r="2.5" fill="#E2E2E2"></circle><circle cx="38.5" cy="83.5" r="2.5" fill="#E2E2E2"></circle><circle cx="47.5" cy="83.5" r="2.5" fill="#E2E2E2"></circle><circle cx="56.5" cy="83.5" r="2.5" fill="#E2E2E2"></circle><circle cx="65.5" cy="83.5" r="2.5" fill="#E2E2E2"></circle><circle cx="74.5" cy="83.5" r="2.5" fill="#E2E2E2"></circle><circle cx="83.5" cy="83.5" r="2.5" fill="#E2E2E2"></circle><circle cx="92.5" cy="83.5" r="2.5" fill="#E2E2E2"></circle><circle cx="2.5" cy="92.5" r="2.5" fill="#E2E2E2"></circle><circle cx="11.5" cy="92.5" r="2.5" fill="#E2E2E2"></circle><circle cx="20.5" cy="92.5" r="2.5" fill="#E2E2E2"></circle><circle cx="29.5" cy="92.5" r="2.5" fill="#E2E2E2"></circle><circle cx="38.5" cy="92.5" r="2.5" fill="#E2E2E2"></circle><circle cx="47.5" cy="92.5" r="2.5" fill="#E2E2E2"></circle><circle cx="56.5" cy="92.5" r="2.5" fill="#E2E2E2"></circle><circle cx="65.5" cy="92.5" r="2.5" fill="#E2E2E2"></circle><circle cx="74.5" cy="92.5" r="2.5" fill="#E2E2E2"></circle><circle cx="83.5" cy="92.5" r="2.5" fill="#E2E2E2"></circle><circle cx="92.5" cy="92.5" r="2.5" fill="#E2E2E2"></circle></svg>