<svg xmlns="http://www.w3.org/2000/svg" width="254" height="259" viewBox="0 0 254 259" fill="none"><path d="M59.4624 142.467C37.9281 110.008 55.394 60.5257 87.8529 38.9914C120.312 17.4571 164.082 26.3132 185.616 58.7721C207.151 91.231 214.919 128.181 182.46 149.716C150.001 171.25 80.9967 174.926 59.4624 142.467Z" fill="#FFCB3B"></path><mask id="mask0_213_4231" style="mask-type:alpha" maskUnits="userSpaceOnUse" x="56" y="27" width="135" height="228"><path d="M68.0711 136.755C46.5367 104.296 55.3929 60.5257 87.8518 38.9914C120.311 17.4571 164.081 26.3132 185.615 58.7721C207.15 91.231 150.345 229.871 117.886 251.406C85.4272 272.94 89.6054 169.214 68.0711 136.755Z" fill="#FFCB3C"></path></mask><g mask="url(#mask0_213_4231)"><path fill-rule="evenodd" clip-rule="evenodd" d="M139.063 100.988C143.708 100.102 148.013 97.682 151.659 93.3564C164.109 78.5858 162.448 62.3497 153.78 47.4468C141.592 26.503 115.073 8.36029 97.8863 2.00595C95.878 1.2641 93.6486 2.29205 92.9046 4.29713C92.166 6.30329 93.1907 8.5348 95.199 9.27665C111.134 15.1681 135.779 31.9222 147.078 51.3443C154.07 63.3553 155.767 76.4561 145.733 88.3634C143.563 90.9382 141.039 92.4544 138.319 93.1427C138.082 91.23 137.812 89.3355 137.505 87.4646C136.272 79.9766 129.522 61.3913 120.264 50.5769C112.937 42.0208 104.103 38.2595 95.1846 44.5295C90.0774 48.1177 88.3254 53.8051 89.4401 60.4835C90.8158 68.7189 96.8749 78.6931 105.052 86.6858C111.848 93.3339 120.068 98.5868 127.996 100.526C129.106 100.799 130.213 101.009 131.31 101.155C133.977 138.038 123.176 181.07 102.16 210.29C100.912 212.025 101.309 214.446 103.046 215.697C104.781 216.946 107.205 216.547 108.453 214.812C130.374 184.336 141.716 139.517 139.063 100.988ZM130.507 93.1446C130.312 91.6598 130.097 90.1846 129.855 88.7265C128.749 82.0052 122.687 65.3261 114.377 55.6177C109.978 50.4808 104.993 47.1097 99.6384 50.8714C97.0117 52.7165 96.5104 55.7743 97.0853 59.2065C97.8447 63.7581 100.444 68.8888 104.054 73.7907C109.66 81.3917 117.741 88.42 125.956 91.7317C127.473 92.3435 128.997 92.8252 130.507 93.1446Z" fill="black"></path><path fill-rule="evenodd" clip-rule="evenodd" d="M96.9888 155.552C104.216 171.914 104.952 193.935 101.788 211.633C101.413 213.737 102.814 215.752 104.921 216.13C107.026 216.506 109.043 215.102 109.419 212.998C112.835 193.872 111.889 170.097 104.078 152.421C103.213 150.465 100.923 149.58 98.9671 150.445C97.0111 151.31 96.1237 153.596 96.9888 155.552Z" fill="black"></path><path fill-rule="evenodd" clip-rule="evenodd" d="M109.551 213.798C116.162 200.664 131.956 189.042 145.896 184.23C147.92 183.529 148.993 181.32 148.295 179.3C147.596 177.28 145.39 176.204 143.364 176.901C127.694 182.317 110.059 195.546 102.626 210.314C101.664 212.222 102.436 214.556 104.347 215.516C106.258 216.476 108.589 215.706 109.551 213.798Z" fill="black"></path></g></svg>