<svg xmlns="http://www.w3.org/2000/svg" width="197" height="103" viewBox="0 0 197 103" fill="none"><path d="M55.5 74.9019C57.5 76.0566 57.5 78.9434 55.5 80.0981L44.25 86.5933C42.25 87.748 39.75 86.3046 39.75 83.9952V71.0048C39.75 68.6954 42.25 67.252 44.25 68.4067L55.5 74.9019Z" fill="black"></path><rect x="66" y="76" width="65" height="3" rx="1.5" fill="black"></rect><rect x="78" y="31" width="44" height="6" rx="3" fill="black"></rect><rect x="63" y="43" width="68" height="3" rx="1.5" fill="black" fill-opacity="0.5"></rect><rect x="125" y="31" width="6" height="6" rx="3" fill="black"></rect><rect y="31" width="6" height="6" rx="3" fill="black"></rect><rect y="40" width="6" height="6" rx="3" fill="black"></rect><rect y="49" width="6" height="13" rx="3" fill="black"></rect><rect y="65" width="6" height="6" rx="3" fill="black"></rect><rect x="22.5" y="1.5" width="152" height="100" rx="8.5" stroke="black" stroke-width="3"></rect><rect x="143.5" y="29.5" width="52" height="44" rx="8.5" stroke="black" stroke-width="3"></rect></svg>