<svg xmlns="http://www.w3.org/2000/svg" width="198" height="111" viewBox="0 0 198 111" fill="none"><rect x="1.5" y="63.5" width="195" height="46" rx="8.5" stroke="black" stroke-width="3"></rect><path d="M180.5 83.9019C182.5 85.0566 182.5 87.9434 180.5 89.0981L169.25 95.5933C167.25 96.748 164.75 95.3046 164.75 92.9952V80.0048C164.75 77.6954 167.25 76.252 169.25 77.4067L180.5 83.9019Z" fill="black"></path><rect x="15" y="83" width="48" height="6" rx="3" fill="black"></rect><rect x="66" y="83" width="6" height="6" rx="3" fill="black"></rect><rect x="1.5" y="1.5" width="195" height="46" rx="8.5" stroke="black" stroke-width="3"></rect><path d="M180.5 21.9019C182.5 23.0566 182.5 25.9434 180.5 27.0981L169.25 33.5933C167.25 34.748 164.75 33.3046 164.75 30.9952V18.0048C164.75 15.6954 167.25 14.252 169.25 15.4067L180.5 21.9019Z" fill="black"></path><rect x="15" y="21" width="48" height="6" rx="3" fill="black"></rect><rect x="66" y="21" width="6" height="6" rx="3" fill="black"></rect></svg>