<svg xmlns="http://www.w3.org/2000/svg" width="213" height="103" viewBox="0 0 213 103" fill="none"><rect x="108" y="71" width="23" height="6" rx="3" fill="black"></rect><rect x="90" y="81" width="41" height="3" rx="1.5" fill="black" fill-opacity="0.5"></rect><rect x="75.5" y="1.5" width="62" height="100" rx="8.5" stroke="black" stroke-width="3"></rect><rect x="84.5" y="9.5" width="45" height="45" rx="4.5" stroke="black" stroke-width="3"></rect><rect x="155.826" y="67" width="13.8338" height="3.60881" rx="1.8044" fill="black"></rect><rect x="145" y="73.0147" width="24.6602" height="1.8044" rx="0.902202" fill="black" fill-opacity="0.5"></rect><path d="M137.5 18.5H166C170.694 18.5 174.5 22.3056 174.5 27V79C174.5 83.6944 170.694 87.5 166 87.5H137.5V18.5Z" stroke="black" stroke-width="3"></path><path d="M137.5 25.5H163.553C166.039 25.5 168.053 27.5147 168.053 30V51.5534C168.053 54.0387 166.039 56.0534 163.553 56.0534H137.5V25.5Z" stroke="black" stroke-width="3"></path><rect width="13.8338" height="3.60881" rx="1.8044" transform="matrix(-1 0 0 1 57.1736 67)" fill="black"></rect><rect width="24.6602" height="1.8044" rx="0.902202" transform="matrix(-1 0 0 1 67.9999 73.0147)" fill="black" fill-opacity="0.5"></rect><path d="M75.5 18.5H47C42.3056 18.5 38.5 22.3056 38.5 27V79C38.5 83.6944 42.3056 87.5 47 87.5H75.5V18.5Z" stroke="black" stroke-width="3"></path><path d="M75.5 25.5H49.4466C46.9613 25.5 44.9466 27.5147 44.9466 30V51.5534C44.9466 54.0387 46.9613 56.0534 49.4466 56.0534H75.5V25.5Z" stroke="black" stroke-width="3"></path><path d="M196.302 59.3441C196.024 59.0667 195.999 58.6327 196.226 58.3269L196.302 58.2392L203.041 51.5L196.302 44.7607C196.024 44.4834 195.999 44.0494 196.226 43.7435L196.302 43.6559C196.579 43.3785 197.013 43.3533 197.319 43.5802L197.407 43.6559L204.698 50.9476C204.976 51.2249 205.001 51.6589 204.774 51.9648L204.698 52.0524L197.407 59.3441C197.102 59.6492 196.607 59.6492 196.302 59.3441Z" fill="black"></path><path d="M16.6983 59.3441C16.9757 59.0667 17.0009 58.6327 16.7739 58.3269L16.6983 58.2392L9.95942 51.5L16.6983 44.7607C16.9757 44.4834 17.0009 44.0494 16.7739 43.7435L16.6983 43.6559C16.4209 43.3785 15.9869 43.3533 15.6811 43.5802L15.5934 43.6559L8.30178 50.9476C8.02442 51.2249 7.9992 51.6589 8.22614 51.9648L8.30178 52.0524L15.5934 59.3441C15.8985 59.6492 16.3932 59.6492 16.6983 59.3441Z" fill="black"></path></svg>