<svg xmlns="http://www.w3.org/2000/svg" width="210" height="195" viewBox="0 0 210 195" fill="none"><path d="M85.0334 162.73C46.2684 166.549 10.7342 127.938 6.91502 89.1725C3.09588 50.4076 31.4251 15.8863 70.19 12.0672C108.955 8.24805 145.239 18.6947 149.058 57.4597C152.877 96.2246 123.798 158.911 85.0334 162.73Z" fill="#FF8E58"></path><mask id="mask0_213_4217" style="mask-type:alpha" maskUnits="userSpaceOnUse" x="6" y="11" width="203" height="166"><path d="M84.0222 152.448C45.2572 156.267 10.736 127.937 6.91688 89.1725C3.09774 50.4076 31.4269 15.8863 70.1919 12.0672C108.957 8.24803 204.831 123.382 208.651 162.147C212.47 200.912 122.787 148.628 84.0222 152.448Z" fill="#FFCB3C"></path></mask><g mask="url(#mask0_213_4217)"><path fill-rule="evenodd" clip-rule="evenodd" d="M85.6778 72.9711C87.0707 68.4529 86.9502 63.5152 84.8366 58.2677C77.6194 40.349 62.4971 34.2101 45.2698 34.8871C21.0566 35.8434 -7.39538 50.773 -21.0607 62.9802C-22.6569 64.4069 -22.7931 66.8581 -21.3702 68.4547C-19.9438 70.0471 -17.4923 70.1872 -15.8961 68.7604C-3.2258 57.4418 23.1211 43.5179 45.5735 42.6338C59.4605 42.0834 71.8297 46.7217 77.6491 61.1643C78.907 64.2882 79.0643 67.2283 78.3982 69.9536C76.5976 69.2665 74.797 68.6183 73.0005 68.0125C65.8072 65.5942 46.2256 62.8505 32.3342 65.9636C21.3424 68.429 13.8807 74.4718 15.2423 85.2881C16.0199 91.4811 20.2239 95.6933 26.6463 97.8371C34.5665 100.48 46.2171 99.7993 57.109 96.3196C66.1664 93.4296 74.6577 88.6286 80.0854 82.533C80.8463 81.6792 81.5501 80.7999 82.1935 79.8992C116.028 94.8217 148.986 124.523 164.956 156.779C165.905 158.695 168.229 159.478 170.149 158.53C172.065 157.581 172.848 155.254 171.9 153.338C155.243 119.693 120.96 88.6777 85.6778 72.9711ZM74.7402 76.8563C73.3373 76.3325 71.9328 75.8321 70.5314 75.3627C64.0751 73.191 46.4999 70.7325 34.0295 73.5266C27.4306 75.0062 22.1169 77.8311 22.9318 84.3242C23.3313 87.5092 25.798 89.3846 29.0996 90.4846C33.4766 91.9459 39.2271 92.0532 45.2491 91.1601C54.5904 89.7685 64.5855 85.9216 71.3599 80.2151C72.6112 79.1611 73.7509 78.0403 74.7402 76.8563Z" fill="black"></path><path fill-rule="evenodd" clip-rule="evenodd" d="M114.173 135.706C132.014 136.986 151.814 146.652 165.967 157.738C167.651 159.056 170.087 158.762 171.408 157.078C172.726 155.394 172.431 152.954 170.748 151.636C155.451 139.658 134.004 129.356 114.728 127.976C112.594 127.824 110.74 129.433 110.588 131.566C110.436 133.699 112.04 135.554 114.173 135.706Z" fill="black"></path><path fill-rule="evenodd" clip-rule="evenodd" d="M171.518 151.895C163.012 139.902 160.143 120.503 162.422 105.932C162.751 103.817 161.302 101.833 159.19 101.504C157.078 101.175 155.094 102.62 154.761 104.736C152.205 121.118 155.631 142.895 165.196 156.381C166.431 158.125 168.855 158.536 170.598 157.297C172.341 156.059 172.753 153.639 171.518 151.895Z" fill="black"></path></g></svg>