<svg xmlns="http://www.w3.org/2000/svg" width="231" height="41" viewBox="0 0 231 41" fill="none"><path fill-rule="evenodd" clip-rule="evenodd" d="M85.6264 15.7191C84.22 16.0045 82.8218 16.3078 81.4319 16.6304C80.926 16.7477 80.6185 17.2385 80.7435 17.7261L80.7501 17.7453C73.2163 17.844 65.6844 18.012 58.1564 18.2512C47.2816 18.597 36.3389 19.1912 25.5037 20.1365C14.796 21.0705 11.8377 21.31 2.62841 22.9034C2.36504 22.9489 1.85661 22.9442 1.58338 23.0169C1.32354 23.086 1.13783 23.2072 1.01874 23.3262C0.866179 23.477 0.778784 23.651 0.742227 23.8416C0.703575 24.0493 0.716347 24.3033 0.902621 24.5876C1.42811 25.3858 2.27336 25.6074 3.30254 25.4431C4.18806 25.3017 5.25727 24.7931 6.09642 24.7376C20.0658 23.8139 34.0253 22.7842 47.9963 21.8801C69.3842 20.496 90.7104 19.8831 112.041 19.5469C134.469 19.8153 156.888 20.6756 179.27 22.0823C193.848 22.9978 208.396 24.3323 222.955 25.5061C222.945 25.5678 222.943 25.6322 222.946 25.6979C222.98 26.1985 223.43 26.5815 223.95 26.5529C224.476 26.5238 229.174 26.4114 230.04 26.2087C230.535 26.0926 230.728 25.7983 230.792 25.6722C230.965 25.3263 230.974 24.95 230.583 24.5895C230.506 24.5203 230.362 24.406 230.098 24.3324C229.872 24.2678 229.313 24.1853 228.298 24.1075C211.991 22.8455 195.704 21.2954 179.38 20.2686C172.092 19.8116 164.8 19.4109 157.503 19.0716C167.405 18.9821 177.311 18.8759 187.233 18.7044C187.66 18.6982 187.867 18.6321 187.905 18.6164C188.449 18.3917 188.485 17.9773 188.474 17.7423C188.471 17.6584 188.395 16.9661 187.595 16.8661C187.127 16.8074 183.747 16.6846 182.446 16.6137C176.197 16.2676 176.343 16.3192 169.95 16.017C155.892 15.3542 141.855 14.8973 127.781 14.5185C122.17 14.3677 116.559 14.2426 110.947 14.1458C127.115 12.8755 143.623 12.9866 159.354 12.8776C167.47 12.8215 175.587 12.8141 183.703 12.943C187.338 13.0008 190.973 13.1173 194.607 13.1926C195.736 13.2159 196.862 13.2646 197.99 13.2944C198.124 13.2978 199.874 13.3177 200.161 13.3126C200.913 13.2995 201.084 12.6553 201.09 12.6295C201.122 12.5083 201.243 11.6412 200.309 11.5041C186.807 9.52323 172.662 9.92762 159.031 9.5656C135.174 8.93189 111.255 8.96807 87.4037 9.59947C76.854 9.87864 66.3394 10.5007 55.8057 11.1194C50.5448 11.4284 45.2701 11.757 40.0611 12.5377C39.5386 12.6162 38.3539 12.6946 37.7794 12.7878C37.4871 12.8353 37.2791 12.9112 37.1839 12.9632C36.7668 13.1888 36.6849 13.5225 36.6791 13.7566C36.6756 13.932 36.7166 14.55 37.5783 14.7417C49.8918 17.4848 63.5382 15.7929 76.0314 15.7338C79.2295 15.7186 82.4267 15.7139 85.6264 15.7191ZM96.0444 15.771C92.3406 16.3036 88.6738 16.9386 85.0594 17.6967C94.0535 17.6104 103.048 17.6226 112.047 17.7305C126.891 17.4965 141.736 17.396 156.598 17.2628C146.986 16.8893 137.372 16.5936 127.742 16.3346C117.18 16.0504 106.612 15.8581 96.0444 15.771ZM147.464 11.1274C127.467 10.7757 107.445 10.8865 87.4708 11.4153C76.9399 11.6941 66.4475 12.3152 55.9343 12.9327C51.7974 13.1757 47.6494 13.4295 43.5345 13.9119C54.1757 15.2099 65.5044 13.9668 76.0087 13.9172C82.6426 13.8859 89.2801 13.8988 95.9156 13.9533C112.778 11.5465 130.401 11.2349 147.464 11.1274Z" fill="#FFAB4B"></path></svg>